<?xml version="1.0" standalone="no"?><!DOCTYPE svg PUBLIC "-//W3C//DTD SVG 1.1//EN" "http://www.w3.org/Graphics/SVG/1.1/DTD/svg11.dtd"><svg t="1595216106253" class="icon" viewBox="0 0 1024 1024" version="1.1" xmlns="http://www.w3.org/2000/svg" p-id="2792" width="32" height="32" xmlns:xlink="http://www.w3.org/1999/xlink"><defs><style type="text/css"></style></defs><path d="M393.142857 158.098286V274.285714h237.933714V158.098286h-32.219428C598.857143 111.177143 559.981714 73.142857 512 73.142857s-86.857143 38.034286-86.857143 84.955429h-32zM512 14.628571a145.554286 145.554286 0 0 1 132.754286 84.955429h44.836571V332.8H334.628571V99.584h44.617143A145.554286 145.554286 0 0 1 512 14.628571zM338.285714 158.098286H227.986286c-35.035429 0-63.414857 28.379429-63.414857 63.414857v665.929143c0 35.035429 28.379429 63.414857 63.414857 63.414857h568.027428c35.035429 0 63.414857-28.379429 63.414857-63.414857V221.476571c0-34.998857-28.379429-63.378286-63.414857-63.378285H685.714286v141.531428a28.635429 28.635429 0 0 1-28.964572 28.342857h-289.499428a28.635429 28.635429 0 0 1-28.964572-28.306285V158.098286z m58.514286 111.36h230.4V99.584h168.813714A121.929143 121.929143 0 0 1 917.942857 221.513143v665.929143a121.929143 121.929143 0 0 1-121.929143 121.929143H227.986286A121.929143 121.929143 0 0 1 106.057143 887.442286V221.476571a121.929143 121.929143 0 0 1 121.929143-121.892571h168.813714v169.874286z" p-id="2793"></path><path d="M712.886857 485.046857l-258.962286 264.740572-143.36-143.286858a31.963429 31.963429 0 0 0-45.202285 45.202286l166.180571 166.180572a31.963429 31.963429 0 0 0 22.601143 9.362285h0.182857a32.109714 32.109714 0 0 0 22.674286-9.618285l281.6-287.853715a32 32 0 0 0-45.714286-44.726857" p-id="2794"></path></svg>