<svg xmlns="http://www.w3.org/2000/svg" width="17.061" height="15.638" viewBox="0 0 17.061 15.638">
  <g id="checkmark" transform="translate(0.25 0.242)">
    <path id="Path_599" data-name="Path 599" d="M7.569,15.146A7.569,7.569,0,1,1,11.652,1.2a.516.516,0,0,1-.558.869,6.536,6.536,0,1,0,3.012,5.5c0-.215-.01-.429-.03-.639a.516.516,0,1,1,1.027-.1q.035.364.035.738a7.578,7.578,0,0,1-7.569,7.569Zm0,0" fill="#44ceb2" stroke="#44ceb2" stroke-width="0.5"/>
    <path id="Path_600" data-name="Path 600" d="M152.952,29.949a.512.512,0,0,1-.365-.151l-3.1-3.1a.516.516,0,1,1,.73-.73l2.732,2.732,7.2-7.2a.516.516,0,0,1,.73.73L153.317,29.8a.517.517,0,0,1-.365.151Zm0,0" transform="translate(-144.523 -20.651)" fill="#44ceb2" stroke="#44ceb2" stroke-width="0.5"/>
  </g>
</svg>
