<?xml version="1.0" standalone="no"?><!DOCTYPE svg PUBLIC "-//W3C//DTD SVG 1.1//EN" "http://www.w3.org/Graphics/SVG/1.1/DTD/svg11.dtd"><svg t="1594689732115" class="icon" viewBox="0 0 1024 1024" version="1.1" xmlns="http://www.w3.org/2000/svg" p-id="12890" xmlns:xlink="http://www.w3.org/1999/xlink" width="128" height="128"><defs><style type="text/css"></style></defs><path d="M842.1 241.6l66-54.1c-21.4-26.1-45.5-50.2-71.7-71.6l-54.1 66c21.8 17.8 41.9 37.9 59.8 59.7zM752 59.7c-29.9-15.9-61.5-28.8-93.9-38.5L633.8 103c27 8 53.3 18.8 78.1 32L752 59.7zM921 390.1l81.8-24.4c-9.7-32.4-22.6-64-38.5-93.8l-75.3 40c13.2 24.9 24 51.1 32 78.2z" fill="#333333" p-id="12891"></path><path d="M1021.9 465.5l-85 7.7c1.2 12.8 1.8 25.8 1.8 38.8 0 235.3-191.4 426.7-426.7 426.7S85.3 747.3 85.3 512 276.7 85.3 512 85.3c12.9 0 26 0.6 38.8 1.7l7.6-85C543.1 0.7 527.5 0 512 0 229.7 0 0 229.7 0 512s229.7 512 512 512 512-229.7 512-512c0-15.5-0.7-31.2-2.1-46.5z" fill="#333333" p-id="12892"></path><path d="M469.3 170.7v359l183.2 183.1 60.3-60.3-158.1-158.2V170.7z" fill="#333333" p-id="12893"></path></svg>