<?xml version="1.0" standalone="no"?><!DOCTYPE svg PUBLIC "-//W3C//DTD SVG 1.1//EN" "http://www.w3.org/Graphics/SVG/1.1/DTD/svg11.dtd"><svg t="1594622604693" class="icon" viewBox="0 0 1024 1024" version="1.1" xmlns="http://www.w3.org/2000/svg" p-id="1847" width="128" height="128" xmlns:xlink="http://www.w3.org/1999/xlink"><defs><style type="text/css"></style></defs><path d="M95.903103 531.334806h171.696938c9.281693 0 15.467434-6.187795 15.467434-15.467434v-57.232998c0-9.281693-6.187795-15.467434-15.467434-15.467433-9.281693 0-15.467434 6.187795-15.467434 15.467433v41.76351H111.372591v-140.762071h156.229505c9.281693 0 15.467434-6.187795 15.467433-15.467434 0-9.281693-6.187795-15.467434-15.467433-15.467434H95.903103c-9.281693 0-15.467434 6.187795-15.467434 15.467434v171.696939c0 9.281693 6.187795 15.469488 15.467434 15.469488zM266.055147 831.420279c-9.281693 0-15.467434 6.187795-15.467434 15.467434V880.918533H111.372591v-140.762071h156.229505c9.281693 0 15.467434-6.187795 15.467433-15.467434s-6.187795-15.467434-15.467433-15.467434H95.903103c-9.281693 0-15.467434 6.187795-15.467434 15.467434v171.696939c0 9.281693 6.187795 15.467434 15.467434 15.467434h171.696938c9.281693 0 15.467434-6.187795 15.467434-15.467434v-49.498254c-1.544894-7.73269-7.730635-15.467434-17.012328-15.467434zM655.855434 811.311999c-9.281693 0-15.467434 6.187795-15.467433 15.467434v40.216561H499.62593v-140.762071h156.229504c9.281693 0 15.467434-6.187795 15.467434-15.467434 0-9.281693-6.187795-15.467434-15.467434-15.467434h-171.696938c-9.281693 0-15.467434 6.187795-15.467434 15.467434v171.696938c0 9.281693 6.187795 15.467434 15.467434 15.467434h171.696938c9.281693 0 15.467434-6.187795 15.467434-15.467434v-55.686048c0-9.279639-6.185741-15.465379-15.467434-15.46538z" p-id="1848"></path><path d="M549.124183 766.452538c-4.640846-7.734744-13.920485-9.281693-21.655229-4.640847-7.734744 4.640846-9.281693 13.920485-4.640846 21.655229l40.21656 61.873844c3.093898 3.093898 6.187795 6.187795 10.828642 6.187796h3.093898c3.093898 0 7.734744-1.546949 9.281693-3.093898l123.745634-102.090405c6.187795-4.640846 7.734744-15.467434 1.546948-21.655229s-15.467434-7.734744-21.655229-1.546949L578.514156 812.858948l-29.389973-46.40641zM162.417793 396.76053c-4.640846-7.734744-13.920485-9.281693-21.655229-4.640846-7.734744 4.640846-9.281693 13.920485-4.640846 21.655229l40.21656 61.873844c3.093898 3.093898 6.187795 6.187795 10.828642 6.187795h3.093898c3.093898 0 7.734744-1.546949 9.281693-3.093897l123.745633-102.090405c6.187795-4.640846 7.734744-15.467434 1.546949-21.655229-6.187795-6.187795-15.467434-7.734744-21.655229-1.546949l-111.372098 89.716869-29.389973-46.406411zM303.17781 733.970721l-111.372098 89.716869-30.936922-46.404356c-4.640846-7.734744-13.920485-9.281693-21.655229-4.640847-7.734744 4.640846-9.281693 13.920485-4.640847 21.655229l40.216561 61.873845c3.093898 3.093898 6.187795 6.187795 10.828642 6.187795h3.093897c3.093898 0 7.734744-1.546949 9.281693-3.093898l123.745634-102.090405c6.187795-4.640846 7.734744-15.467434 1.546949-21.655229-4.638792-6.18985-13.920485-7.736798-20.10828-1.549003z" p-id="1849"></path><path d="M391.34773 303.951818c0-9.281693-6.187795-15.467434-15.467434-15.467434-9.281693 0-15.467434 6.187795-15.467434 15.467434v286.162934H95.903103c-9.281693 0-15.467434 6.187795-15.467434 15.467434s6.187795 15.467434 15.467434 15.467434h266.054653V907.214609c0 9.281693 6.187795 15.467434 15.467434 15.467433s15.467434-6.187795 15.467434-15.467433V622.598623h266.054654c9.281693 0 15.467434-6.187795 15.467434-15.467434s-6.183687-15.469488-15.46538-15.469488H391.34773V303.951818z" p-id="1850"></path><path d="M762.586686 42.538011c-71.153483 0-137.668173 29.389973-184.07253 75.794329v-9.281693c0-9.281693-6.187795-15.467434-15.467433-15.467434h-51.045203v-12.37559c0-43.310458-35.577769-78.888227-78.888227-78.888227h-111.372097c-43.310458 0-78.888227 35.577769-78.888227 78.888227V92.036265H191.807766c-9.281693 0-15.467434 6.187795-15.467433 15.467433V144.628416h-120.653791A55.453904 55.453904 0 0 0 0.000493 200.314465v765.68009a55.453904 55.453904 0 0 0 55.686049 55.686049h641.934456a55.453904 55.453904 0 0 0 55.686049-55.686049V563.818677h9.281693c143.855969 0 261.413807-117.559893 261.413807-261.413807S906.442654 42.538011 762.586686 42.538011zM272.242942 81.207623c0-26.296076 21.655229-47.951305 47.951305-47.951305h111.372098c26.296076 0 47.951305 21.655229 47.951304 47.951305V92.036265H272.242942v-10.828642z m-66.514691 43.312513h341.848983v32.48387c-10.828642 15.467434-20.10828 32.483871-27.843024 51.045203H205.728251V124.520136z m516.641874 843.021368c0 13.920485-10.828642 24.749127-24.749127 24.749127H55.686542c-13.920485 0-24.749127-10.828642-24.749127-24.749127V201.861414c0-13.920485 10.828642-24.749127 24.749127-24.749127h119.106842v44.857407c0 9.281693 6.187795 15.467434 15.467434 15.467434h320.193753c-6.187795 21.655229-9.281693 43.310458-9.281693 66.51469 0 129.933429 95.90261 238.211629 221.197247 258.31991v405.269776zM762.586686 534.428704c-126.839532 0-230.476885-103.637354-230.476885-230.476886S635.747154 73.474933 762.586686 73.474933s230.476885 103.637354 230.476885 230.476885S889.426217 534.428704 762.586686 534.428704z" p-id="1851"></path><path d="M761.039737 143.081467c9.281693 0 15.467434-6.187795 15.467434-15.467434V105.95675c0-9.281693-6.187795-15.467434-15.467434-15.467434s-15.467434 6.187795-15.467434 15.467434v20.10828c0 9.281693 6.185741 17.016437 15.467434 17.016437zM764.133635 466.369118c-9.281693 0-15.467434 6.187795-15.467434 15.467434v20.108281c0 9.281693 6.187795 15.467434 15.467434 15.467433s15.467434-6.187795 15.467433-15.467433v-20.108281c0-9.279639-6.185741-15.467434-15.467433-15.467434zM960.581754 286.937436h-20.10828c-9.281693 0-15.467434 6.187795-15.467434 15.467434 0 9.281693 6.187795 15.467434 15.467434 15.467433h20.10828c9.281693 0 15.467434-6.187795 15.467434-15.467433 0-9.281693-6.187795-15.467434-15.467434-15.467434zM584.701952 291.576228h-20.108281c-9.281693 0-15.467434 6.187795-15.467433 15.467434s6.187795 15.467434 15.467433 15.467433h20.108281c9.281693 0 15.467434-6.187795 15.467434-15.467433s-6.187795-15.467434-15.467434-15.467434zM897.160961 187.938874l13.920485-13.920485c6.187795-6.187795 6.187795-15.467434 0-21.655229-6.187795-6.187795-15.467434-6.187795-21.655229 0l-13.920485 13.920485c-6.187795 6.187795-6.187795 15.467434 0 21.655229 6.185741 6.187795 15.467434 6.187795 21.655229 0zM628.01241 419.964763l-13.920485 15.467433c-6.187795 6.187795-6.187795 15.467434 0 21.65523s15.467434 6.187795 21.655229 0l13.920485-13.920485c6.187795-6.187795 6.187795-15.467434 0-21.65523s-15.467434-7.734744-21.655229-1.546948zM900.254859 416.870865c-6.187795-6.187795-15.467434-6.187795-21.655229 0-6.187795 6.187795-6.187795 15.467434 0 21.655229l13.920485 13.920485c6.187795 6.187795 15.467434 6.187795 21.655229 0 6.187795-6.187795 6.187795-15.467434 0-21.655229l-13.920485-13.920485zM624.918512 191.032772c6.187795 6.187795 15.467434 6.187795 21.65523 0 6.187795-6.187795 6.187795-15.467434 0-21.655229l-13.920485-13.920485c-6.187795-6.187795-15.467434-6.187795-21.65523 0-6.187795 6.187795-6.187795 15.467434 0 21.655229l13.920485 13.920485zM805.897144 324.060099c3.093898-6.187795 4.640846-12.373536 4.640847-20.108281 0-21.655229-13.920485-38.671666-32.483871-44.857407V172.47144c0-9.281693-6.187795-15.467434-15.467434-15.467434s-15.467434 6.187795-15.467434 15.467434v86.622971c-18.561331 6.187795-32.483871 24.749127-32.483871 44.857407 0 26.296076 21.655229 47.951305 47.951305 47.951305 7.734744 0 15.467434-1.546949 21.655229-6.187795l60.326895 60.326895c6.187795 6.187795 15.467434 6.187795 21.655229 0s6.187795-15.467434 0-21.655229l-60.326895-60.326895z m-43.310458-3.093898c-9.281693 0-17.014383-7.734744-17.014383-17.014383 0-9.281693 7.734744-17.014383 17.014383-17.014382s17.014383 7.734744 17.014382 17.014382c0 9.281693-7.73269 17.014383-17.014382 17.014383z" p-id="1852"></path></svg>